<svg width="24" height="24" viewBox="0 0 24 24" fill="none" xmlns="http://www.w3.org/2000/svg">
<path d="M3.46967 16.4697C3.25517 16.6842 3.191 17.0068 3.30709 17.287C3.42318 17.5673 3.69665 17.75 4 17.75H9H15H20C20.3033 17.75 20.5768 17.5673 20.6929 17.287C20.809 17.0068 20.7448 16.6842 20.5303 16.4697L19.1254 15.0647C18.885 14.8244 18.75 14.4984 18.75 14.1585V11C18.75 8.24849 17.104 5.8831 14.7449 4.83171C14.658 3.3913 13.4623 2.25 12 2.25C10.5377 2.25 9.34202 3.3913 9.25506 4.83172C6.89595 5.8831 5.25 8.24849 5.25 11V14.1585C5.25 14.4984 5.11497 14.8244 4.8746 15.0647L3.46967 16.4697Z" stroke="#4B5563" stroke-width="1.5" stroke-linecap="round" stroke-linejoin="round"/>
</svg>
